<svg width="14" height="14" viewBox="0 0 10 10" fill="none" xmlns="http://www.w3.org/2000/svg">
<g clip-path="url(#clip0_202_493)">
<path d="M9.43232 2.97947L9.66716 2.74872L9.72638 2.69154L9.75497 2.66295C9.76722 2.6507 9.78764 2.63028 9.80398 2.6119C9.87136 2.53634 9.93467 2.43015 9.96734 2.32397C9.98572 2.26475 9.99593 2.1994 9.99797 2.13814L10 2.06054C10 2.04012 9.99593 2.02174 9.98776 2.00132C9.9653 1.95231 9.93467 1.88084 9.89791 1.81141C9.86115 1.73994 9.81623 1.67255 9.78356 1.63987C9.77334 1.62762 9.76313 1.61741 9.75292 1.61129C9.74476 1.60516 9.73659 1.60312 9.73046 1.60108C9.71617 1.59699 9.70391 1.59903 9.6937 1.60312C9.67328 1.61537 9.65899 1.63579 9.65695 1.68684C9.64674 1.77669 9.63448 1.90943 9.63448 2.05646C9.63448 2.06667 9.63448 2.07688 9.63448 2.08709V2.09934C9.61611 2.16264 9.58752 2.22391 9.54668 2.27087C9.50583 2.31988 9.45478 2.35256 9.40169 2.38931C9.2955 2.46283 9.18931 2.54043 9.08313 2.62211C8.86871 2.78343 8.65225 2.95497 8.43579 3.13671C8.00083 3.49815 7.56179 3.89636 7.13295 4.30886C6.60814 4.8112 6.08537 5.31151 5.56056 5.81386L4.7662 6.57351L4.57016 6.76342L4.52523 6.8063C4.52523 6.8063 4.52115 6.80834 4.51911 6.80834L4.50685 6.81039L3.98817 6.91045C3.63081 6.98192 3.27549 7.05135 2.91813 7.12282L2.74659 7.15754C2.81602 6.8206 2.8875 6.48161 2.95693 6.14467L3.06311 5.60761L3.08966 5.47283L3.10191 5.40544L3.10395 5.39728V5.39319V5.39115C3.106 5.38298 3.10191 5.40136 3.10191 5.39728C3.10191 5.39319 3.106 5.38094 3.10395 5.38911C3.09987 5.40136 3.10191 5.39523 3.10191 5.39728C3.09987 5.39728 3.106 5.38707 3.106 5.38502L3.11212 5.3789L3.13663 5.35439L3.1836 5.30538C3.44294 5.05421 3.70432 4.80508 3.96366 4.5539C4.78253 3.75546 5.6014 2.95292 6.40802 2.14222C6.81031 1.73585 7.21055 1.32744 7.60671 0.916983L7.75578 0.761786C7.78029 0.735239 7.79458 0.720944 7.80275 0.712776H7.80888C7.87831 0.718902 7.93548 0.725029 7.98041 0.735239C8.00287 0.739323 8.02125 0.743407 8.03555 0.749533H8.03759C8.0335 0.747491 8.04576 0.753617 8.03146 0.747491H8.0335L8.03759 0.749533L8.04984 0.753617L8.07435 0.763828L8.12335 0.784248C8.18462 0.810795 8.2275 0.829174 8.28468 0.857763C8.39291 0.912899 8.49501 0.976203 8.59303 1.04972C9.03412 1.37441 9.28529 1.82162 9.44457 1.70522C9.51196 1.65213 9.53238 1.50306 9.46703 1.28864C9.40169 1.07626 9.24445 0.794459 8.95856 0.551453C8.83195 0.443223 8.69309 0.347246 8.5481 0.265564C8.51135 0.245143 8.47051 0.224722 8.43375 0.204302C8.39291 0.181839 8.36432 0.171629 8.32756 0.15325L8.30306 0.140998L8.28264 0.130787L8.26426 0.122619C8.23975 0.112409 8.21525 0.10424 8.19074 0.0960721C8.14173 0.0817776 8.09681 0.0695252 8.05188 0.0613569C8.009 0.0531887 7.96612 0.0450204 7.92732 0.0388942L7.87014 0.0307259L7.83747 0.0266418C7.81909 0.0245997 7.80071 0.0225577 7.78233 0.0225577C7.70882 0.0205156 7.62713 0.032768 7.55566 0.0593149C7.48419 0.0858617 7.42293 0.122619 7.37596 0.161418C7.36371 0.169586 7.35145 0.181839 7.33716 0.194091L7.30857 0.220638L7.26773 0.259437L7.18605 0.337036L7.02268 0.492233C6.58976 0.906772 6.15889 1.32744 5.73618 1.75219C5.05617 2.43832 4.38433 3.1265 3.71249 3.8208L2.70779 4.86021L2.64245 4.9276C2.60569 4.9664 2.57506 5.00724 2.54851 5.05013C2.52401 5.09301 2.50155 5.13793 2.48521 5.19103C2.46479 5.26046 2.46683 5.27475 2.45866 5.30743L2.38923 5.66274L2.24833 6.37134C2.19115 6.57963 2.13193 6.78792 2.07475 6.99826L2.03187 7.1555L2.01145 7.23514L2.00124 7.27394C1.99715 7.29436 1.98899 7.32907 1.98694 7.35766C1.97469 7.47814 2.00737 7.63334 2.10947 7.74974C2.15848 7.80691 2.22382 7.85388 2.29121 7.88247C2.3586 7.91106 2.42803 7.92535 2.49746 7.9274C2.51788 7.9274 2.5383 7.9274 2.55872 7.92535L2.5914 7.92127L2.60161 7.91923L2.6302 7.91514L2.65062 7.91106L2.73026 7.89677L2.89158 7.87022L3.21218 7.81508C3.4266 7.77628 3.64102 7.73748 3.85544 7.69869C4.06985 7.65784 4.28427 7.617 4.49869 7.57616L4.66001 7.54553C4.75394 7.52715 4.86422 7.48427 4.95611 7.42096C4.97857 7.40463 5.00103 7.38829 5.01941 7.37195L5.05209 7.34337L5.07047 7.32499L5.12968 7.26781L5.24608 7.15345C5.55648 6.8451 5.86891 6.53879 6.17931 6.23044C6.79805 5.60965 7.4168 4.98682 8.03555 4.36603C8.34594 4.05564 8.65633 3.74524 8.96469 3.43689L9.43232 2.97947ZM7.77212 0.710734C7.76599 0.710734 7.75987 0.710734 7.75782 0.708692L7.77212 0.710734ZM2.47091 7.21472C2.4607 7.21676 2.47296 7.21472 2.47908 7.21267C2.48112 7.21267 2.48112 7.21267 2.48317 7.21267L2.47091 7.21472Z" fill="#8687E7"/>
<path d="M8.18664 5.76687C8.08658 5.60963 8.00286 5.81384 7.93955 6.12015C7.83337 6.62454 7.75781 7.18202 7.70676 7.77014C7.68021 8.0642 7.65979 8.36642 7.6455 8.67069C7.64141 8.74625 7.63937 8.82384 7.63529 8.90144L7.6312 9.01784V9.03213V9.0403C7.6312 9.03418 7.6312 9.0546 7.6312 9.02805V9.03009V9.03418L7.62916 9.06277C7.62712 9.08931 7.62508 9.08319 7.62303 9.08931C7.6067 9.1567 7.5536 9.22205 7.4903 9.25472C7.44946 9.27514 7.4127 9.28331 7.35961 9.28127L7.0778 9.27514L6.51623 9.26289L5.39106 9.23838C4.64162 9.22409 3.89014 9.21184 3.1407 9.19754C2.38922 9.18733 1.63774 9.17916 0.886257 9.17916H0.878089H0.86992L0.835205 9.17712C0.833163 9.17304 0.845416 9.17712 0.835205 9.17508C0.822953 9.17304 0.812742 9.16691 0.80049 9.16283C0.780069 9.15057 0.757607 9.1322 0.745354 9.11177C0.73106 9.09135 0.724934 9.06685 0.722892 9.0403L0.718807 8.7585C0.714723 8.38276 0.708597 8.00498 0.700429 7.62719C0.708597 7.25349 0.714723 6.88184 0.722892 6.50814C0.739228 5.32374 0.75148 4.14138 0.747396 2.95903L0.745354 2.53632C0.745354 2.49548 0.759649 2.46893 0.786196 2.44239C0.798448 2.43013 0.814785 2.42196 0.831121 2.41584C0.839289 2.4138 0.847458 2.41175 0.857668 2.40971C0.85971 2.40971 0.861752 2.40971 0.863794 2.40971C0.863794 2.40971 0.880131 2.40971 0.886257 2.40971H0.941393L1.38452 2.40359C1.97468 2.39338 2.56484 2.37908 3.15295 2.35662C3.82275 2.33211 4.37819 2.23818 4.32918 2.05439C4.28426 1.8849 3.80845 1.76034 3.12232 1.74196C2.50562 1.72562 1.88483 1.70928 1.26404 1.69295L1.03124 1.68886L0.914846 1.68682C0.892383 1.68682 0.880131 1.68478 0.851542 1.68682C0.820911 1.68886 0.788238 1.68886 0.757607 1.69295C0.506432 1.72154 0.271595 1.86652 0.134776 2.0789C0.100061 2.13199 0.0714723 2.18917 0.0510517 2.24839C0.0285889 2.30965 0.0142945 2.36479 0.00408413 2.44647L0.00204207 2.47302V2.48731L0 2.5159V2.54653V2.56083V2.58941V2.70581V3.1714C0.00408413 4.16793 0.0163365 5.16446 0.030631 6.16099L0.0530937 7.65578L0.0653461 8.40318L0.0714723 8.77688L0.0735144 8.9627V9.00967C0.0735144 9.02601 0.0735144 9.03622 0.0755565 9.06277C0.0775985 9.10973 0.0837247 9.15466 0.091893 9.20163C0.11844 9.36703 0.200123 9.52631 0.322646 9.64475C0.383909 9.70397 0.455381 9.75707 0.532979 9.79383C0.61262 9.83058 0.688176 9.85713 0.798448 9.87142L0.839289 9.87551L0.8495 9.87755H0.876047L0.896467 9.87959L0.980192 9.88368L1.14764 9.89184L1.48458 9.90614C1.93384 9.92452 2.38309 9.93881 2.83235 9.94902C3.7329 9.96944 4.63753 9.97761 5.54217 9.97761C5.99551 9.97761 6.44885 9.97557 6.90014 9.97557L7.23913 9.97353H7.32489H7.37186L7.44537 9.96944C7.54544 9.95923 7.64345 9.93473 7.73535 9.89593C7.91913 9.81425 8.07433 9.67539 8.17235 9.50181C8.22136 9.414 8.25607 9.32211 8.27649 9.22205C8.28262 9.19142 8.28671 9.16283 8.28875 9.1322C8.29079 9.11382 8.29079 9.10973 8.29079 9.10156V9.08114L8.29283 9.0403V9.01988V8.977C8.29079 8.07032 8.29079 7.16569 8.30304 6.26309C8.30917 6.09973 8.2377 5.84651 8.18664 5.76687Z" fill="#8687E7"/>
</g>
<defs>
<clipPath id="clip0_202_493">
<rect width="10" height="10" fill="white"/>
</clipPath>
</defs>
</svg>
