<svg width="28" height="28" viewBox="0 0 24 24" fill="none" xmlns="http://www.w3.org/2000/svg">
<g clip-path="url(#clip0_202_646)">
<path d="M19.5711 4.92995C15.6722 1.03108 9.32808 1.0308 5.42893 4.92995C1.52978 8.8291 1.53005 15.1732 5.42893 19.0721C9.32781 22.971 15.6719 22.9712 19.5711 19.0721C23.4702 15.1729 23.4699 8.82883 19.5711 4.92995ZM15.3556 15.9445L12.5 13.0889L9.50839 16.0805C9.20815 16.3807 8.72079 16.3807 8.42054 16.0805C8.12029 15.7802 8.12029 15.2929 8.42054 14.9926L11.4121 12.001L8.55652 9.1454C8.25627 8.84515 8.25627 8.35779 8.55652 8.05754C8.85677 7.75729 9.34413 7.75729 9.64438 8.05754L12.5 10.9132L15.2196 8.19352C15.5199 7.89328 16.0072 7.89328 16.3075 8.19352C16.6077 8.49377 16.6077 8.98113 16.3075 9.28138L13.5879 12.001L16.4435 14.8566C16.7437 15.1569 16.7437 15.6443 16.4435 15.9445C16.1432 16.2448 15.6559 16.2448 15.3556 15.9445Z" fill="#6bf564c3"/>
</g>
<defs>
<clipPath id="clip0_202_646">
<rect width="24" height="24" fill="white"/>
</clipPath>
</defs>
</svg>
