<svg width="25" height="25" viewBox="0 0 24 24" fill="none" xmlns="http://www.w3.org/2000/svg">
<path d="M11 1.5C8.82441 1.5 6.69767 2.08649 4.88873 3.1853C3.07979 4.28412 1.66989 5.8459 0.83733 7.67316C0.00476609 9.50043 -0.213071 11.5111 0.211367 13.4509C0.635804 15.3907 1.68345 17.1725 3.22183 18.5711C4.76021 19.9696 6.72022 20.922 8.85401 21.3078C10.9878 21.6937 13.1995 21.4957 15.2095 20.7388C17.2195 19.9819 18.9375 18.7002 20.1462 17.0557C21.3549 15.4112 22 13.4778 22 11.5C22 8.84783 20.8411 6.3043 18.7782 4.42893C16.7153 2.55357 13.9174 1.5 11 1.5ZM10.56 15.6667L5.5 12.1583L7.1775 10.1833L10.2117 12.3333L14.3458 8.1L16.3992 9.76667L10.56 15.6667Z" fill="#9333EA"/>
</svg>

