<svg width="28" height="28" viewBox="0 0 24 24" fill="none" xmlns="http://www.w3.org/2000/svg">
<g clip-path="url(#clip0_202_461)">
<path d="M10 21C15.5228 21 20 16.5228 20 11C20 5.47715 15.5228 1 10 1C4.47715 1 0 5.47715 0 11C0 16.5228 4.47715 21 10 21Z" fill="#9333EA"/>
<path d="M13.8008 7.34961C13.6836 7.25391 13.5293 7.21875 13.3829 7.25C12.3067 7.47461 11.1856 7.24609 10.2852 6.61719C10.1153 6.49805 9.88871 6.49805 9.71684 6.61719C8.81645 7.24609 7.69535 7.47461 6.61918 7.25C6.4727 7.21875 6.3184 7.25391 6.20121 7.34961C6.08403 7.44531 6.01567 7.58789 6.01762 7.73828V11.4492C6.01762 12.8984 6.71684 14.2578 7.89457 15.0996L9.71293 16.3945C9.88676 16.5176 10.1172 16.5176 10.2911 16.3945L12.1094 15.0996C13.2852 14.2578 13.9844 12.8984 13.9844 11.4492V7.73828C13.9844 7.58789 13.918 7.44531 13.8008 7.34961ZM12.9883 11.4492C12.9883 12.5762 12.4454 13.6328 11.5293 14.2871L10 15.3789L8.47074 14.2891C7.55473 13.6328 7.01176 12.5762 7.01176 11.4492V8.31055C8.05668 8.40039 9.1016 8.1582 10 7.61914C10.8985 8.1582 11.9434 8.40039 12.9883 8.31055V11.4492Z" fill="#D8C4EA"/>
</g>
<defs>
<clipPath id="clip0_202_461">
<rect width="20" height="20" fill="white" transform="translate(0 1)"/>
</clipPath>
</defs>
</svg>
